<svg width="67" height="102" viewBox="0 0 67 102" fill="none" xmlns="http://www.w3.org/2000/svg">
<path d="M61.4412 18.6576C61.4412 22.4848 60.2564 25.7466 57.8867 28.443C55.6017 31.1395 52.1742 32.8791 47.6042 33.662V34.1838C52.4281 34.7927 56.2788 36.4889 59.1562 39.2723C62.1182 42.0557 63.5992 45.622 63.5992 49.971C63.5992 53.0154 63.0068 55.8423 61.822 58.4518C60.7218 61.0612 58.9446 63.3228 56.4903 65.2364C54.0361 67.1499 50.8625 68.6286 46.9695 69.6724C43.1612 70.7162 38.5065 71.2381 33.0056 71.2381H0V0H33.0056C38.4219 0 43.2458 0.608873 47.4773 1.82662C51.7934 2.95738 55.1786 4.87098 57.6328 7.56741C60.1717 10.2639 61.4412 13.9606 61.4412 18.6576ZM47.9199 48.5714C45.6767 44.7645 44.74 44.5238 42.355 42.9048C39.97 41.2857 35.5868 40.9684 31.3553 40.9684H18.9147V57.7994H31.7361C35.2906 57.7994 50.0844 57.7994 50.0844 57.7994C50.0844 57.7994 50.0844 52.2449 47.9199 48.5714ZM42.2725 20.2233C42.2725 17.9617 41.4262 16.3091 39.7337 15.2653C38.0411 14.2215 35.5445 13.6996 32.2439 13.6996H18.9147V27.7907H30.0859C34.0635 27.7907 37.0678 27.2253 39.0989 26.0945C41.2147 24.8768 42.2725 22.9197 42.2725 20.2233Z" fill="black"/>
<path d="M32.8825 40.4159C36.3384 40.4158 20.2345 40.4159 20.2345 40.4159C20.2345 40.4159 22.6366 40.4158 18.8039 40.4158V27.6544C22.4798 27.6543 21.2085 27.6543 23.1331 27.6543C26.9348 27.6543 29.196 27.6542 32.8154 27.6543C38.5226 27.6543 43.0903 28.3694 47.2694 30.0605C51.5169 31.6839 55.0794 34.1191 57.9568 37.366C60.9027 40.5453 63.1292 44.4687 64.6364 49.1361C66.2121 53.7359 67 58.9783 67 64.8634C67 72.3042 65.7326 78.8319 63.1977 84.4464C60.6629 89.9932 56.7579 94.3224 51.4827 97.434C46.276 100.478 39.5964 102 31.4438 102C27.2647 102 23.4625 101.696 20.037 101.087C16.6801 100.478 13.2546 99.531 9.76069 98.2458V85.3596C13.6657 86.5771 17.2624 87.5242 20.5509 88.2006C23.9078 88.877 27.2305 89.2153 30.5189 89.2153C33.6703 89.2153 36.445 88.8432 38.8428 88.0991C41.3091 87.2874 43.3644 86.1375 45.0086 84.6493C46.7213 83.0935 48.0572 81.1656 49.0164 78.8657C49.9755 76.4982 50.4208 74.2821 50.5578 71.2381H18.8039V58.1666H50.5578C50.4893 55.3255 50.0097 52.8227 49.1191 50.6581C48.2285 48.4258 46.9953 46.5656 45.4196 45.0775C43.8439 43.5216 41.9599 42.3379 39.7676 41.5261C37.6439 40.7144 30.0323 40.4161 32.8825 40.4159Z" fill="black"/>
</svg>
