<svg width="16" height="16" viewBox="0 0 16 16" fill="none" xmlns="http://www.w3.org/2000/svg">
<rect width="16" height="16" rx="3" fill="white"/>
<path d="M11.3363 4.37793C11.3363 4.86571 11.1948 5.28143 10.9118 5.62509C10.639 5.96876 10.2298 6.19048 9.68408 6.29025V6.35676C10.2601 6.43437 10.7199 6.65054 11.0634 7.00529C11.4171 7.36004 11.5939 7.81456 11.5939 8.36886C11.5939 8.75687 11.5232 9.11716 11.3817 9.44974C11.2504 9.78231 11.0382 10.0705 10.7451 10.3144C10.4521 10.5583 10.0731 10.7468 9.6083 10.8798C9.15357 11.0129 8.59779 11.0794 7.94097 11.0794H4V2H7.94097C8.58769 2 9.16368 2.0776 9.66893 2.2328C10.1843 2.37692 10.5885 2.62081 10.8815 2.96447C11.1847 3.30814 11.3363 3.77929 11.3363 4.37793ZM9.72178 8.19048C9.45394 7.70528 9.34208 7.6746 9.05731 7.46825C8.77254 7.26191 8.24917 7.22147 7.74392 7.22147H6.25848V9.36659H7.78939C8.2138 9.36659 9.98023 9.36659 9.98023 9.36659C9.98023 9.36659 9.98023 8.65866 9.72178 8.19048ZM9.04747 4.57747C9.04747 4.28924 8.94642 4.07861 8.74432 3.94558C8.54222 3.81255 8.24412 3.74603 7.85002 3.74603H6.25848V5.54195H7.59234C8.06728 5.54195 8.42601 5.46989 8.66853 5.32577C8.92115 5.17057 9.04747 4.92114 9.04747 4.57747Z" fill="black"/>
<path d="M7.92627 7.15105C8.33891 7.15103 6.41606 7.15105 6.41606 7.15105C6.41606 7.15105 6.70288 7.15103 6.24524 7.15103V5.52458C6.68416 5.52456 6.53236 5.52456 6.76216 5.52456C7.21609 5.52456 7.48609 5.52456 7.91826 5.52456C8.59971 5.52457 9.14511 5.6157 9.64411 5.83123C10.1513 6.03815 10.5766 6.34851 10.9202 6.76234C11.272 7.16754 11.5378 7.66757 11.7178 8.26244C11.9059 8.84869 12 9.51685 12 10.2669C12 11.2152 11.8487 12.0472 11.546 12.7628C11.2433 13.4697 10.7771 14.0215 10.1472 14.4181C9.52549 14.806 8.72792 15 7.75448 15C7.25549 15 6.80149 14.9612 6.39248 14.8836C5.99165 14.806 5.58264 14.6853 5.16546 14.5215V12.8792C5.63173 13.0343 6.06119 13.155 6.45383 13.2413C6.85466 13.3275 7.2514 13.3706 7.64405 13.3706C8.02034 13.3706 8.35164 13.3232 8.63794 13.2283C8.93243 13.1249 9.17784 12.9783 9.37416 12.7886C9.57866 12.5903 9.73818 12.3446 9.8527 12.0515C9.96722 11.7498 10.0204 11.4673 10.0368 11.0794H6.24524V9.41339H10.0368C10.0286 9.0513 9.97131 8.73231 9.86497 8.45642C9.75863 8.17192 9.61138 7.93483 9.42324 7.74517C9.2351 7.54688 9.01014 7.396 8.74838 7.29255C8.49479 7.18909 7.58595 7.15107 7.92627 7.15105Z" fill="black"/>
</svg>
